#tb 0: 1/60
#media_type 0: video
#codec_id 0: rawvideo
#dimensions 0: 2048x1536
#sar 0: 0/1
0,          0,          0,        1,  4718592, 0xa201f61d
0,          1,          1,        1,  4718592, 0x63438b04
0,          2,          2,        1,  4718592, 0xb2ef2022
0,          3,          3,        1,  4718592, 0x9bcd7e4e
0,          4,          4,        1,  4718592, 0x7d84b453
0,          5,          5,        1,  4718592, 0xe1825fd9
0,          6,          6,        1,  4718592, 0x4d3fa47e
0,          7,          7,        1,  4718592, 0x3717852e
0,          8,          8,        1,  4718592, 0x3b894106
0,          9,          9,        1,  4718592, 0x94b23d4d
0,         10,         10,        1,  4718592, 0x813ef53f
0,         11,         11,        1,  4718592, 0xa4fd9eb2
0,         12,         12,        1,  4718592, 0x719308ab
0,         13,         13,        1,  4718592, 0xcc53abdb
0,         14,         14,        1,  4718592, 0x69a1fbad
0,         15,         15,        1,  4718592, 0xb1dee2e6
0,         16,         16,        1,  4718592, 0x8892b11a
0,         17,         17,        1,  4718592, 0xeea14ec7
0,         18,         18,        1,  4718592, 0x1c8351a2
0,         19,         19,        1,  4718592, 0x616a56d6
0,         20,         20,        1,  4718592, 0x166e9329
0,         21,         21,        1,  4718592, 0xe62a5ada
0,         22,         22,        1,  4718592, 0x7ad680b9
0,         23,         23,        1,  4718592, 0xa6c5d534
0,         24,         24,        1,  4718592, 0xfbfbfd9a
0,         25,         25,        1,  4718592, 0x30c3a53f
0,         26,         26,        1,  4718592, 0x7229cad1
0,         27,         27,        1,  4718592, 0x2703bd48
0,         28,         28,        1,  4718592, 0xc46880e9
0,         29,         29,        1,  4718592, 0x9480ac78
0,         30,         30,        1,  4718592, 0xc9410aa9
0,         31,         31,        1,  4718592, 0x7094d03d
0,         32,         32,        1,  4718592, 0x63b02bce
0,         33,         33,        1,  4718592, 0x5b7bf9c5
0,         34,         34,        1,  4718592, 0x99af0869
0,         35,         35,        1,  4718592, 0x54b382b6
0,         36,         36,        1,  4718592, 0xc2511916
0,         37,         37,        1,  4718592, 0x9833e473
0,         38,         38,        1,  4718592, 0x91062ed4
0,         39,         39,        1,  4718592, 0x47669bea
0,         40,         40,        1,  4718592, 0x0bde1655
0,         41,         41,        1,  4718592, 0x0c638749
0,         42,         42,        1,  4718592, 0x4d5c380a
0,         43,         43,        1,  4718592, 0x1780c529
0,         44,         44,        1,  4718592, 0xe16a41da
0,         45,         45,        1,  4718592, 0xfc265995
0,         46,         46,        1,  4718592, 0x4fa62cc5
0,         47,         47,        1,  4718592, 0x3c1263dc
0,         48,         48,        1,  4718592, 0x43e21353
0,         49,         49,        1,  4718592, 0x81a20ca5
0,         50,         50,        1,  4718592, 0x74a6065b
0,         51,         51,        1,  4718592, 0x5305f734
0,         52,         52,        1,  4718592, 0xe287f597
0,         53,         53,        1,  4718592, 0xc7c5dd6b
0,         54,         54,        1,  4718592, 0x5b173885
0,         55,         55,        1,  4718592, 0xb146d1f2
0,         56,         56,        1,  4718592, 0x9c462f75
0,         57,         57,        1,  4718592, 0x5214a211
0,         58,         58,        1,  4718592, 0x473dd1c2
0,         59,         59,        1,  4718592, 0x85efaa75
0,         60,         60,        1,  4718592, 0x0885206c
0,         61,         61,        1,  4718592, 0xe591f7c0
0,         62,         62,        1,  4718592, 0xecd67225
